<?xml version="1.0" encoding="UTF-8" standalone="no"?>
<!DOCTYPE svg PUBLIC "-//W3C//DTD SVG 1.1//EN"
 "http://www.w3.org/Graphics/SVG/1.1/DTD/svg11.dtd">
<!-- Generated by graphviz version 8.0.3 (20230416.2022)
 -->
<!-- Pages: 1 -->
<svg width="732pt" height="254pt"
 viewBox="0.00 0.00 732.00 254.00" xmlns="http://www.w3.org/2000/svg" xmlns:xlink="http://www.w3.org/1999/xlink">
<g id="graph0" class="graph" transform="scale(1 1) rotate(0) translate(4 250)">
<polygon fill="white" stroke="none" points="-4,4 -4,-250 728,-250 728,4 -4,4"/>
<!-- 2098157368848 -->
<g id="node1" class="node">
<title>2098157368848</title>
<polygon fill="none" stroke="black" points="428.5,-88.5 428.5,-157.5 509.5,-157.5 509.5,-88.5 428.5,-88.5"/>
<text text-anchor="middle" x="469" y="-142.3" font-family="Times New Roman,serif" font-size="14.00">d</text>
<polyline fill="none" stroke="black" points="428.5,-134.5 509.5,-134.5"/>
<text text-anchor="middle" x="469" y="-119.3" font-family="Times New Roman,serif" font-size="14.00">data 4.0000</text>
<polyline fill="none" stroke="black" points="428.5,-111.5 509.5,-111.5"/>
<text text-anchor="middle" x="469" y="-96.3" font-family="Times New Roman,serif" font-size="14.00">grad 0</text>
</g>
<!-- 2098161942224* -->
<g id="node6" class="node">
<title>2098161942224*</title>
<ellipse fill="none" stroke="blue" cx="575" cy="-167" rx="27" ry="18"/>
<text text-anchor="middle" x="575" y="-163.3" font-family="Times New Roman,serif" font-size="14.00" fill="blue">*</text>
</g>
<!-- 2098157368848&#45;&gt;2098161942224* -->
<g id="edge6" class="edge">
<title>2098157368848&#45;&gt;2098161942224*</title>
<path fill="none" stroke="black" d="M509.32,-139.63C519.91,-144.11 531.24,-148.91 541.42,-153.21"/>
<polygon fill="black" stroke="black" points="539.95,-156.82 550.52,-157.49 542.68,-150.37 539.95,-156.82"/>
</g>
<!-- 2098157368848+ -->
<g id="node2" class="node">
<title>2098157368848+</title>
<ellipse fill="none" stroke="blue" cx="363" cy="-123" rx="27" ry="18"/>
<text text-anchor="middle" x="363" y="-119.3" font-family="Times New Roman,serif" font-size="14.00" fill="blue">+</text>
</g>
<!-- 2098157368848+&#45;&gt;2098157368848 -->
<g id="edge1" class="edge">
<title>2098157368848+&#45;&gt;2098157368848</title>
<path fill="none" stroke="black" d="M390.24,-123C398.73,-123 408.43,-123 418.04,-123"/>
<polygon fill="black" stroke="black" points="417.78,-126.5 427.78,-123 417.78,-119.5 417.78,-126.5"/>
</g>
<!-- 2098157310096 -->
<g id="node3" class="node">
<title>2098157310096</title>
<polygon fill="none" stroke="black" points="212,-132.5 212,-201.5 300,-201.5 300,-132.5 212,-132.5"/>
<text text-anchor="middle" x="256" y="-186.3" font-family="Times New Roman,serif" font-size="14.00">c</text>
<polyline fill="none" stroke="black" points="212,-178.5 300,-178.5"/>
<text text-anchor="middle" x="256" y="-163.3" font-family="Times New Roman,serif" font-size="14.00">data 10.0000</text>
<polyline fill="none" stroke="black" points="212,-155.5 300,-155.5"/>
<text text-anchor="middle" x="256" y="-140.3" font-family="Times New Roman,serif" font-size="14.00">grad 0</text>
</g>
<!-- 2098157310096&#45;&gt;2098157368848+ -->
<g id="edge9" class="edge">
<title>2098157310096&#45;&gt;2098157368848+</title>
<path fill="none" stroke="black" d="M299.71,-149.1C309.61,-144.95 319.99,-140.6 329.38,-136.67"/>
<polygon fill="black" stroke="black" points="330.6,-139.53 338.47,-132.44 327.9,-133.08 330.6,-139.53"/>
</g>
<!-- 2098157310160 -->
<g id="node4" class="node">
<title>2098157310160</title>
<polygon fill="none" stroke="black" points="0,-88.5 0,-157.5 86,-157.5 86,-88.5 0,-88.5"/>
<text text-anchor="middle" x="43" y="-142.3" font-family="Times New Roman,serif" font-size="14.00">b</text>
<polyline fill="none" stroke="black" points="0,-134.5 86,-134.5"/>
<text text-anchor="middle" x="43" y="-119.3" font-family="Times New Roman,serif" font-size="14.00">data &#45;3.0000</text>
<polyline fill="none" stroke="black" points="0,-111.5 86,-111.5"/>
<text text-anchor="middle" x="43" y="-96.3" font-family="Times New Roman,serif" font-size="14.00">grad 0</text>
</g>
<!-- 2098157369104* -->
<g id="node8" class="node">
<title>2098157369104*</title>
<ellipse fill="none" stroke="blue" cx="149" cy="-79" rx="27" ry="18"/>
<text text-anchor="middle" x="149" y="-75.3" font-family="Times New Roman,serif" font-size="14.00" fill="blue">*</text>
</g>
<!-- 2098157310160&#45;&gt;2098157369104* -->
<g id="edge7" class="edge">
<title>2098157310160&#45;&gt;2098157369104*</title>
<path fill="none" stroke="black" d="M85.7,-105.36C95.74,-101.11 106.32,-96.63 115.85,-92.6"/>
<polygon fill="black" stroke="black" points="116.86,-95.55 124.71,-88.43 114.13,-89.1 116.86,-95.55"/>
</g>
<!-- 2098161942224 -->
<g id="node5" class="node">
<title>2098161942224</title>
<polygon fill="none" stroke="black" points="638,-132.5 638,-201.5 724,-201.5 724,-132.5 638,-132.5"/>
<text text-anchor="middle" x="681" y="-186.3" font-family="Times New Roman,serif" font-size="14.00">L</text>
<polyline fill="none" stroke="black" points="638,-178.5 724,-178.5"/>
<text text-anchor="middle" x="681" y="-163.3" font-family="Times New Roman,serif" font-size="14.00">data &#45;8.0000</text>
<polyline fill="none" stroke="black" points="638,-155.5 724,-155.5"/>
<text text-anchor="middle" x="681" y="-140.3" font-family="Times New Roman,serif" font-size="14.00">grad 0</text>
</g>
<!-- 2098161942224*&#45;&gt;2098161942224 -->
<g id="edge2" class="edge">
<title>2098161942224*&#45;&gt;2098161942224</title>
<path fill="none" stroke="black" d="M602.24,-167C609.94,-167 618.65,-167 627.38,-167"/>
<polygon fill="black" stroke="black" points="627.38,-170.5 637.38,-167 627.38,-163.5 627.38,-170.5"/>
</g>
<!-- 2098157369104 -->
<g id="node7" class="node">
<title>2098157369104</title>
<polygon fill="none" stroke="black" points="213,-44.5 213,-113.5 299,-113.5 299,-44.5 213,-44.5"/>
<text text-anchor="middle" x="256" y="-98.3" font-family="Times New Roman,serif" font-size="14.00">e</text>
<polyline fill="none" stroke="black" points="213,-90.5 299,-90.5"/>
<text text-anchor="middle" x="256" y="-75.3" font-family="Times New Roman,serif" font-size="14.00">data &#45;6.0000</text>
<polyline fill="none" stroke="black" points="213,-67.5 299,-67.5"/>
<text text-anchor="middle" x="256" y="-52.3" font-family="Times New Roman,serif" font-size="14.00">grad 0</text>
</g>
<!-- 2098157369104&#45;&gt;2098157368848+ -->
<g id="edge4" class="edge">
<title>2098157369104&#45;&gt;2098157368848+</title>
<path fill="none" stroke="black" d="M298.8,-96.52C309.05,-100.81 319.86,-105.34 329.59,-109.42"/>
<polygon fill="black" stroke="black" points="328.07,-113 338.65,-113.63 330.78,-106.54 328.07,-113"/>
</g>
<!-- 2098157369104*&#45;&gt;2098157369104 -->
<g id="edge3" class="edge">
<title>2098157369104*&#45;&gt;2098157369104</title>
<path fill="none" stroke="black" d="M176.5,-79C184.44,-79 193.45,-79 202.47,-79"/>
<polygon fill="black" stroke="black" points="202.39,-82.5 212.39,-79 202.39,-75.5 202.39,-82.5"/>
</g>
<!-- 2098157239120 -->
<g id="node9" class="node">
<title>2098157239120</title>
<polygon fill="none" stroke="black" points="2.5,-0.5 2.5,-69.5 83.5,-69.5 83.5,-0.5 2.5,-0.5"/>
<text text-anchor="middle" x="43" y="-54.3" font-family="Times New Roman,serif" font-size="14.00">a</text>
<polyline fill="none" stroke="black" points="2.5,-46.5 83.5,-46.5"/>
<text text-anchor="middle" x="43" y="-31.3" font-family="Times New Roman,serif" font-size="14.00">data 2.0000</text>
<polyline fill="none" stroke="black" points="2.5,-23.5 83.5,-23.5"/>
<text text-anchor="middle" x="43" y="-8.3" font-family="Times New Roman,serif" font-size="14.00">grad 0</text>
</g>
<!-- 2098157239120&#45;&gt;2098157369104* -->
<g id="edge8" class="edge">
<title>2098157239120&#45;&gt;2098157369104*</title>
<path fill="none" stroke="black" d="M83.32,-51.63C93.91,-56.11 105.24,-60.91 115.42,-65.21"/>
<polygon fill="black" stroke="black" points="113.95,-68.82 124.52,-69.49 116.68,-62.37 113.95,-68.82"/>
</g>
<!-- 2098157369744 -->
<g id="node10" class="node">
<title>2098157369744</title>
<polygon fill="none" stroke="black" points="426,-176.5 426,-245.5 512,-245.5 512,-176.5 426,-176.5"/>
<text text-anchor="middle" x="469" y="-230.3" font-family="Times New Roman,serif" font-size="14.00">f</text>
<polyline fill="none" stroke="black" points="426,-222.5 512,-222.5"/>
<text text-anchor="middle" x="469" y="-207.3" font-family="Times New Roman,serif" font-size="14.00">data &#45;2.0000</text>
<polyline fill="none" stroke="black" points="426,-199.5 512,-199.5"/>
<text text-anchor="middle" x="469" y="-184.3" font-family="Times New Roman,serif" font-size="14.00">grad 0</text>
</g>
<!-- 2098157369744&#45;&gt;2098161942224* -->
<g id="edge5" class="edge">
<title>2098157369744&#45;&gt;2098161942224*</title>
<path fill="none" stroke="black" d="M511.7,-193.36C521.74,-189.11 532.32,-184.63 541.85,-180.6"/>
<polygon fill="black" stroke="black" points="542.86,-183.55 550.71,-176.43 540.13,-177.1 542.86,-183.55"/>
</g>
</g>
</svg>
